<svg width="113" height="20" viewBox="0 0 113 20" fill="none" xmlns="http://www.w3.org/2000/svg">
<path d="M20 7.63907H12.3583L10 0L7.64167 7.63907H0L6.18333 12.3609L3.81667 20L10 15.2781L16.1833 20L13.8167 12.3609L20 7.63907Z" fill="#FFB800"></path>
<path d="M43.1765 7.63907H35.0853L32.5882 0L30.0912 7.63907H22L28.5471 12.3609L26.0412 20L32.5882 15.2781L39.1353 20L36.6294 12.3609L43.1765 7.63907Z" fill="#FFB800"></path>
<path d="M66.1765 7.63907H58.0853L55.5882 0L53.0912 7.63907H45L51.5471 12.3609L49.0412 20L55.5882 15.2781L62.1353 20L59.6294 12.3609L66.1765 7.63907Z" fill="#FFB800"></path>
<path d="M89.1765 7.63907H81.0853L78.5882 0L76.0912 7.63907H68L74.5471 12.3609L72.0412 20L78.5882 15.2781L85.1353 20L82.6294 12.3609L89.1765 7.63907Z" fill="#FFB800"></path>
<path d="M112.176 7.63907H104.085L101.588 0L99.0912 7.63907H91L97.5471 12.3609L95.0412 20L101.588 15.2781L108.135 20L105.629 12.3609L112.176 7.63907Z" fill="#FFB800"></path>
</svg>
