<svg width="103" height="16" viewBox="0 0 103 16" fill="none" xmlns="http://www.w3.org/2000/svg">
<path fill-rule="evenodd" clip-rule="evenodd" d="M80.7668 6.74531C81.1604 6.46146 80.9596 5.83978 80.4743 5.83978H75.5075C75.2912 5.83978 75.0994 5.70071 75.0322 5.49513L73.4976 0.800475C73.3474 0.340942 72.6973 0.340943 72.5471 0.800475L71.0125 5.49513C70.9453 5.70071 70.7536 5.83978 70.5373 5.83978H65.5704C65.0852 5.83978 64.8844 6.46146 65.2779 6.74531L69.2908 9.63945C69.4674 9.76683 69.5413 9.9939 69.4734 10.2008L67.9365 14.8861C67.7856 15.3461 68.3113 15.7307 68.704 15.4475L72.7299 12.5439C72.9045 12.418 73.1402 12.418 73.3149 12.5439L77.3407 15.4474C77.7334 15.7307 78.2592 15.3461 78.1083 14.8861L76.5714 10.2008C76.5035 9.9939 76.5773 9.76683 76.754 9.63945L80.7668 6.74531ZM101.847 6.73716C102.227 6.44686 102.022 5.83978 101.544 5.83978H96.8959C96.6766 5.83978 96.4828 5.69684 96.4181 5.48727L95.0001 0.894091C94.855 0.424079 94.1897 0.424078 94.0446 0.894089L92.6266 5.48727C92.5619 5.69684 92.3682 5.83978 92.1489 5.83978H87.501C87.0227 5.83978 86.8174 6.44686 87.1975 6.73716L91.0008 9.64148C91.1674 9.76875 91.237 9.98651 91.1749 10.1868L89.7299 14.8509C89.5858 15.316 90.124 15.6918 90.511 15.3963L94.2189 12.5647C94.3981 12.4279 94.6467 12.4279 94.8258 12.5647L98.5338 15.3963C98.9208 15.6918 99.459 15.3161 99.3148 14.8509L97.8699 10.1868C97.8078 9.98651 97.8773 9.76875 98.044 9.64148L101.847 6.73716ZM14.5438 5.83978C15.0221 5.83978 15.2274 6.44686 14.8472 6.73716L11.044 9.64148C10.8773 9.76875 10.8078 9.98651 10.8699 10.1868L12.3148 14.8509C12.459 15.3161 11.9208 15.6918 11.5338 15.3963L7.82584 12.5647C7.64667 12.4279 7.3981 12.4279 7.21892 12.5647L3.51098 15.3963C3.12397 15.6918 2.58582 15.316 2.72992 14.8509L4.1749 10.1868C4.23696 9.98651 4.16743 9.76875 4.00076 9.64148L0.197518 6.73716C-0.182629 6.44686 0.0226615 5.83978 0.500974 5.83978H5.14887C5.3682 5.83978 5.56193 5.69684 5.62663 5.48727L7.04463 0.894089C7.18973 0.424078 7.85503 0.424079 8.00014 0.894091L9.41814 5.48727C9.48284 5.69684 9.67656 5.83978 9.89589 5.83978H14.5438ZM58.7668 6.74531C59.1604 6.46146 58.9596 5.83978 58.4743 5.83978H53.5075C53.2912 5.83978 53.0994 5.70071 53.0322 5.49513L51.4976 0.800475C51.3474 0.340942 50.6973 0.340943 50.5471 0.800475L49.0125 5.49513C48.9453 5.70071 48.7536 5.83978 48.5373 5.83978H43.5704C43.0852 5.83978 42.8844 6.46146 43.2779 6.74531L47.2908 9.63945C47.4674 9.76683 47.5413 9.9939 47.4734 10.2008L45.9365 14.8861C45.7856 15.3461 46.3113 15.7307 46.704 15.4475L50.7299 12.5439C50.9045 12.418 51.1402 12.418 51.3149 12.5439L55.3407 15.4474C55.7334 15.7307 56.2592 15.3461 56.1083 14.8861L54.5714 10.2008C54.5035 9.9939 54.5773 9.76683 54.754 9.63945L58.7668 6.74531ZM36.4743 5.83978C36.9596 5.83978 37.1604 6.46146 36.7668 6.74531L32.754 9.63945C32.5773 9.76683 32.5035 9.9939 32.5714 10.2008L34.1083 14.8861C34.2592 15.3461 33.7334 15.7307 33.3407 15.4474L29.3149 12.5439C29.1402 12.418 28.9045 12.418 28.7299 12.5439L24.704 15.4475C24.3113 15.7307 23.7856 15.3461 23.9365 14.8861L25.4734 10.2008C25.5413 9.9939 25.4674 9.76683 25.2908 9.63945L21.2779 6.74531C20.8844 6.46146 21.0852 5.83978 21.5704 5.83978H26.5373C26.7536 5.83978 26.9453 5.70071 27.0125 5.49513L28.5471 0.800475C28.6973 0.340943 29.3474 0.340942 29.4976 0.800475L31.0322 5.49513C31.0994 5.70071 31.2912 5.83978 31.5075 5.83978H36.4743Z" fill="#FFB800"></path>
</svg>
